<?xml version="1.0" encoding="UTF-8"?>
<svg id="Layer_2" xmlns="http://www.w3.org/2000/svg" version="1.1" viewBox="0 0 552 125">
  <!-- Generator: Adobe Illustrator 30.2.1, SVG Export Plug-In . SVG Version: 2.1.1 Build 1)  -->
  <defs>
    <style>
      .st0 {
        fill: #fff;
      }

      .st1 {
        stroke: #000;
        stroke-miterlimit: 10;
      }
    </style>
  </defs>
  <path class="st1" d="M119.83,85.06c-6.44,1.87-9.65,2.85-16.04,4.91-10.58,3.3-22.36-1.51-26.49-12.06-2.21-6.09-3.32-9.13-5.53-15.22-3.85-11.47,3.85-22.66,14.78-26.21,7.03-2.27,10.57-3.35,17.65-5.4,11.04-3.17,23.61,1.84,26.81,13.48,1.57,6.28,2.36,9.43,3.93,15.71,2.49,11.01-4.5,21.61-15.11,24.79h0Z"/>
  <path class="st0" d="M108.94,56.63c-.11-.37-.3-.82-.42-1.23-.89-2.45-5.16-13.14-6.35-16,2.88-1.71,7.51-2.93,9.24-3.17,1,2.17,1.39,4.52,2.35,7,1.04,2.7,2.32,7.11,3.81,11.29,1.03,2.91,3.45,10.29,4.53,13.24-3.42,1.02-5.12,1.55-8.52,2.63-.85-2.6-1.27-3.9-2.12-6.51-1.02-2.91-1.77-5.3-2.51-7.25h0Z"/>
  <path class="st1" d="M185.42,70.26c-6.57,1.07-9.86,1.66-16.4,2.93-10.87,2-21.88-4.27-24.69-15.18-1.47-6.31-2.2-9.46-3.67-15.77-2.45-11.78,6.39-21.99,17.64-24.21,7.2-1.4,10.81-2.04,18.05-3.23,11.32-1.82,23.11,4.72,24.88,16.6.81,6.43,1.22,9.64,2.03,16.07,1.16,11.18-6.95,20.9-17.84,22.79h0Z"/>
  <path class="st0" d="M178.38,48.19c1.43,5.03,2.79,9.45,3.86,12.83-2.44,1.29-5.21,2.11-8.27,2.42-.38-1.17-.56-1.75-.94-2.91.02.02.04.02.06.04-3.55-10.89-6.81-21.89-10.14-32.85,2.29-2.1,3.44-3.15,5.77-5.22,6.34,8.21,11.63,15.26,13.33,17.33-.41-2.23-.77-4.46-1.13-6.7-.64-3.99-2.61-11.82-1.85-13.22.43-.79,3.08-1.31,3.98-1.45.96-.15,2.62-.06,5.1.16.45,3.83,1.07,8.81,1.6,12.52,1.32,9.25,2.99,18.61,5.1,27.73-1.85.73-2.77,1.1-4.61,1.85-3.27-3.45-7.27-7.6-11.87-12.53h.01Z"/>
  <path class="st1" d="M511.72,114.7c-6.17-2.85-9.27-4.23-15.5-6.88-10.18-4.43-16.01-15.79-12.21-26.5,2.32-6.05,3.47-9.07,5.79-15.12,4.62-11.24,17.84-14.57,28.44-10.07,6.86,2.92,10.27,4.44,17.05,7.57,10.46,4.85,16.99,16.9,11.75,27.92-2.94,5.77-4.4,8.66-7.34,14.44-5.43,10.04-17.85,13.23-27.98,8.65h0Z"/>
  <path class="st0" d="M537.18,93.98s.01-.03.02-.04c-3.49,5.04-7.74,8.26-12.59,9.8-4.27,1.35-8.47,1.11-12.74-.82-3.14-1.42-5.77-3.73-7.45-6.35-3.58-5.9-2.29-13.95-.08-19.24,3.54-8.49,10.33-12.45,20.36-11.47-.02,0-.03,0-.05-.02,1.91.16,3.77.74,5.52,1.54,4.61,2.1,7.94,5.7,9.49,10.03,1.58,4.42,1.34,9.55-.79,13.87-.38.78-.99,1.77-1.69,2.71h0ZM531.2,78.83c-.51-2.25-1.6-3.77-3.09-4.45-.54-.25-1.28-.48-2.26-.55.03,0,.04,0,.07-.02-5.78-.56-10.45,1.94-12.82,7.37-1.91,4.37-2.98,8.83-.82,12.59.8,1.41,1.97,2.36,3.21,2.92,1.57.71,3.37.58,5.48-.29,2.51-1.04,5.05-3.49,7.58-7.09,0,.02-.01.03-.02.04.55-.91,1.08-1.78,1.41-2.48,1.4-2.96,1.8-5.71,1.27-8.02v-.02Z"/>
  <path class="st1" d="M384.19,73.39c-6.55-1.28-9.83-1.88-16.4-2.96-10.89-1.91-18.98-11.64-17.8-22.82.82-6.43,1.23-9.64,2.06-16.06,1.8-11.88,13.6-18.4,24.91-16.56,7.23,1.2,10.84,1.85,18.04,3.26,11.25,2.23,20.07,12.46,17.6,24.24-1.48,6.31-2.22,9.46-3.7,15.77-2.82,10.9-13.85,17.16-24.72,15.13h.01Z"/>
  <path class="st0" d="M390.11,43.63c.07-.38.11-.86.2-1.29.35-2.58,1.5-14.04,1.77-17.13,3.33-.19,7.97.86,9.61,1.45-.12,2.39-.85,4.65-1.15,7.29-.32,2.87-1.22,7.38-1.84,11.77-.43,3.06-1.69,10.72-2.1,13.84-3.49-.67-5.24-.98-8.74-1.6.45-2.7.67-4.05,1.12-6.75.44-3.05.88-5.52,1.12-7.59h.01Z"/>
  <path class="st1" d="M448.4,89.97c-6.4-2.06-9.6-3.04-16.04-4.91-10.61-3.18-17.59-13.77-15.11-24.79,1.57-6.28,2.36-9.43,3.93-15.71,3.2-11.63,15.77-16.65,26.81-13.48,7.08,2.05,10.61,3.13,17.65,5.4,10.93,3.55,18.64,14.74,14.78,26.21-2.21,6.09-3.32,9.13-5.53,15.22-4.12,10.54-15.91,15.36-26.49,12.06h0Z"/>
  <path class="st0" d="M452.5,66.5c-1.02,5.13-1.82,9.68-2.41,13.18-2.78.02-5.64-.52-8.53-1.64.2-1.21.29-1.81.49-3.02.01.02.02.04.04.06,1.8-11.32,3.91-22.59,5.94-33.87,3.01-.82,4.52-1.22,7.56-2,1.93,10.22,3.45,18.91,4.04,21.53.65-2.17,1.35-4.32,2.05-6.47,1.25-3.85,3.08-11.71,4.39-12.6.75-.51,3.37.24,4.25.54.93.31,2.38,1.15,4.52,2.49-1.35,3.61-3.07,8.33-4.29,11.87-3.05,8.83-5.83,17.92-8.11,27.01-2-.2-3-.3-5-.48-1.36-4.57-3.06-10.1-4.93-16.6h-.01Z"/>
  <path class="st1" d="M317.81,64.45c-6.63-.49-9.94-.69-16.58-.99-11.03-.6-20.18-9.32-20.33-20.54.05-6.48.08-9.72.13-16.19.37-11.99,11.27-19.88,22.72-19.4,7.3.33,10.95.54,18.24,1.09,11.42.88,21.33,10.01,20.27,21.96-.72,6.44-1.07,9.66-1.79,16.09-1.49,11.13-11.63,18.69-22.65,17.98h-.01Z"/>
  <path class="st0" d="M329.62,25.58h.05c-2.63,1.62-3.94,2.44-6.53,4.09h.05c-.44.26-1.7.88-3.44,1.72.02-.02.03-.03.06-.04-.33.17-.49.25-.82.42,2.33,2.63,3.7,4.34,4.37,5.02,2.19,2.5,4.23,4.61,6.04,6.27,1.5,1.41,2.25,2.12,3.73,3.55-.5,1.4-1.03,2.66-1.68,3.61-.77,1.13-1.88,2.1-2.96,2.77-2.06-2.1-3.1-3.15-5.2-5.24-1.65-1.68-5.22-6.1-6.95-8.83-.29,2.73-.5,7.21-.78,9.12-.09.62-.15,2.93-.23,3.36-3.13.56-5.93.2-8.54-1.24.14-1.07.21-1.61.35-2.68.34-5.34.81-10.74,1.13-16.1.08-1.39.34-3.72.69-6.81.36-3.13.8-10.71.88-12.2,3.43-.53,6.51-.29,9.16.43-.61,4.38-.91,6.57-1.51,10.95,2.48-1.37,6.14-3.28,9.68-5.73,1.23-.84,1.85-1.26,3.09-2.1,2.63,1.98,4.31,4.08,5.13,6.04-1.14.68-1.71,1.02-2.84,1.71-1.18.76-1.77,1.14-2.94,1.91h.01Z"/>
  <path class="st1" d="M250.96,63.46c-6.64.3-9.95.49-16.58.99-11.02.71-21.16-6.85-22.65-17.98-.72-6.44-1.08-9.66-1.79-16.09-1.06-11.96,8.85-21.08,20.27-21.96,7.29-.54,10.94-.76,18.24-1.09,11.45-.48,22.35,7.41,22.72,19.4.05,6.48.08,9.72.13,16.19-.16,11.22-9.31,19.94-20.33,20.54h-.01Z"/>
  <path class="st0" d="M248.29,33.2c-.02-.38-.09-.86-.11-1.3-.28-2.59-1.89-13.99-2.36-17.05,3.18-.98,7.91-1.07,9.64-.88.46,2.35.28,4.72.62,7.35.37,2.87.57,7.46,1.02,11.87.31,3.07.91,10.81,1.26,13.94-3.53.19-5.3.29-8.83.53-.21-2.73-.31-4.09-.52-6.82-.3-3.07-.47-5.57-.72-7.63h0Z"/>
  <path class="st1" d="M55.98,107.82c-6.23,2.66-9.33,4.03-15.5,6.88-10.13,4.58-22.55,1.39-27.98-8.65-2.94-5.77-4.4-8.66-7.34-14.44-5.24-11.02,1.29-23.07,11.75-27.92,6.79-3.14,10.2-4.65,17.05-7.57,10.6-4.5,23.82-1.16,28.44,10.07,2.32,6.05,3.47,9.07,5.79,15.12,3.81,10.71-2.02,22.07-12.21,26.5h0Z"/>
  <path class="st0" d="M60.8,91.28c-1.1.44-2.7.73-4.75.9-.45-1.09-.67-1.63-1.12-2.72-.22-.8-.92-1.55-1.27-2.39-2.06-4.98-5.84-12.18-7.72-15.15-.73,5.37.18,15.45.44,19.22-1.55.67-2.33,1-3.87,1.68-5.06-3.31-7.61-4.95-12.78-8.15,2.25,5.7,6.88,13.44,6.33,15.12-.27.82-3.54,2.11-4.25,2.44-1.22.57-2.92,1-4.99,1.24-.47-1.03-.71-1.55-1.18-2.59-3.52-9.3-7-18.61-10.44-27.95,1.46-2.31,2.2-3.46,3.69-5.77,7.63,4.84,11.39,7.31,18.78,12.37-.52-4.66.78-16.6,1.85-21.17,3.31-.36,4.96-.53,8.25-.84.51.92.77,1.37,1.27,2.29.71,1.17,1.53,2.5,2.6,4.15.71,1.13,1.06,1.69,1.77,2.82,3.27,5.44,8.61,15.24,10.57,19.07.47,1.03.71,1.55,1.18,2.59-1.17.98-2.5,2.08-4.36,2.83h0Z"/>
</svg>